Coordinates
version=1
nRows=21
nColumns=12
inDegrees=yes

Units are S.I. units (second, meters, Newtons, ...)
Angles are in degrees

endheader
time	SC_y	SC_z	SC_x	AC_y	AC_z	AC_x	GH_y	GH_z	GH_yy	EL_x	PS_y
       0.0              -45.39          37.31          75.74          44.49         -1.568         -11.81         -76.51          17.41          24.27           83.2          91.83
  0.000441              -45.39          37.31          75.74          44.49         -1.569         -11.81          -76.5          17.41          24.24           83.2          91.84
 0.0008821              -45.39           37.3          75.73          44.49         -1.571         -11.81         -76.49          17.42          24.21           83.2          91.84
  0.001323              -45.39           37.3          75.72          44.49         -1.572         -11.81         -76.47          17.42          24.18           83.2          91.85
  0.001764              -45.38           37.3          75.71          44.49         -1.574         -11.81         -76.46          17.43          24.15          83.21          91.86
  0.002205              -45.38           37.3           75.7          44.49         -1.576         -11.81         -76.45          17.43          24.12          83.21          91.87
  0.002646              -45.38          37.29          75.69          44.49         -1.577         -11.81         -76.43          17.44          24.08          83.21          91.88
  0.003087              -45.37          37.29          75.68          44.49         -1.579         -11.81         -76.42          17.45          24.04          83.21          91.89
  0.003528              -45.37          37.29          75.67          44.49         -1.581         -11.81          -76.4          17.45           24.0          83.21           91.9
  0.003969              -45.37          37.28          75.65          44.49         -1.584         -11.82         -76.38          17.46          23.96          83.21          91.92
   0.00441              -45.36          37.28          75.64           44.5         -1.586         -11.82         -76.36          17.47          23.91          83.22          91.93
  0.004851              -45.36          37.28          75.62           44.5         -1.588         -11.82         -76.34          17.48          23.86          83.22          91.94
  0.005292              -45.35          37.27          75.61           44.5         -1.591         -11.82         -76.32          17.49           23.8          83.22          91.96
  0.005733              -45.35          37.27          75.59           44.5         -1.594         -11.82          -76.3           17.5          23.74          83.22          91.98
  0.006175              -45.34          37.26          75.57           44.5         -1.597         -11.82         -76.27          17.51          23.68          83.22           92.0
  0.006616              -45.33          37.26          75.55           44.5         -1.601         -11.83         -76.24          17.52          23.61          83.23          92.02
  0.007057              -45.33          37.25          75.53           44.5         -1.605         -11.83         -76.21          17.53          23.53          83.23          92.04
  0.007498              -45.32          37.25           75.5          44.51         -1.609         -11.83         -76.18          17.55          23.45          83.23          92.06
  0.007939              -45.31          37.24          75.48          44.51         -1.613         -11.83         -76.14          17.56          23.36          83.24          92.09
   0.00838               -45.3          37.23          75.45          44.51         -1.618         -11.84          -76.1          17.58          23.26          83.24          92.12
  0.008821              -45.29          37.23          75.41          44.51         -1.624         -11.84         -76.06           17.6          23.15          83.25          92.15
